<?xml version="1.0" encoding="UTF-8"?>
<svg version="1.1" xmlns="http://www.w3.org/2000/svg" width="512" height="512">
<path d="M0 0 C1.24953435 -0.00538554 2.4990687 -0.01077108 3.78646773 -0.01631981 C7.21106964 -0.02804525 10.63517742 -0.02657895 14.05975831 -0.019153 C17.77018739 -0.01438484 21.48056644 -0.02696317 25.190979 -0.03717041 C32.44324 -0.0542933 39.6954141 -0.05521196 46.94769005 -0.04995751 C52.84777199 -0.04590212 58.74782842 -0.04737554 64.64790916 -0.05270576 C65.91159225 -0.0538284 65.91159225 -0.0538284 67.20080429 -0.05497371 C68.91272739 -0.05650532 70.62465048 -0.05804367 72.33657356 -0.05958868 C88.36077216 -0.07329035 104.38492181 -0.06789263 120.40911927 -0.05640347 C135.0370092 -0.04647516 149.66477257 -0.05940895 164.29264299 -0.08333766 C179.34833664 -0.10777877 194.40397147 -0.11732414 209.45968455 -0.11068493 C217.89797344 -0.10720361 226.33616508 -0.10935243 234.77443886 -0.12693596 C241.95818416 -0.14172088 249.14176374 -0.1422119 256.32550601 -0.12486505 C259.98341942 -0.11640375 263.6410376 -0.11408443 267.29893494 -0.1295166 C285.14395214 -0.19945527 302.31649269 -0.1527026 318.62638855 8.07518005 C319.32594666 8.41839294 320.02550476 8.76160583 320.7462616 9.11521912 C342.18680375 19.99644784 357.66260324 38.7037981 366.062931 61.02366096 C369.16426268 70.78667263 370.25539482 80.37953808 370.2015686 90.5737915 C370.20964691 92.44809303 370.20964691 92.44809303 370.21788841 94.36025923 C370.22961385 97.78486114 370.22814756 101.20896893 370.2207216 104.63354981 C370.21595344 108.3439789 370.22853177 112.05435795 370.23873901 115.76477051 C370.25586191 123.0170315 370.25678056 130.26920561 370.25152611 137.52148155 C370.24747072 143.42156349 370.24894415 149.32161993 370.25427437 155.22170067 C370.25502279 156.06415606 370.25577121 156.90661145 370.25654231 157.77459579 C370.25807393 159.48651889 370.25961228 161.19844198 370.26115728 162.91036507 C370.27485896 178.93456366 370.26946124 194.95871332 370.25797207 210.98291077 C370.24804376 225.61080071 370.26097755 240.23856408 370.28490626 254.86643449 C370.30934737 269.92212815 370.31889274 284.97776298 370.31225353 300.03347605 C370.30877222 308.47176494 370.31092104 316.90995658 370.32850456 325.34823036 C370.34328949 332.53197566 370.34378051 339.71555524 370.32643365 346.89929751 C370.31797235 350.55721093 370.31565303 354.21482911 370.33108521 357.87272644 C370.40102388 375.71774365 370.3542712 392.8902842 362.12638855 409.20018005 C361.78317566 409.89973816 361.43996277 410.59929626 361.08634949 411.3200531 C350.20512076 432.76059525 331.4977705 448.23639474 309.17790765 456.63672251 C299.41489597 459.73805418 289.82203052 460.82918632 279.6277771 460.77536011 C278.37824275 460.78074565 277.1287084 460.78613118 275.84130937 460.79167992 C272.41670746 460.80340535 268.99259968 460.80193906 265.56801879 460.79451311 C261.85758971 460.78974495 258.14721065 460.80232327 254.4367981 460.81253052 C247.1845371 460.82965341 239.932363 460.83057207 232.68008705 460.82531761 C226.78000511 460.82126223 220.87994868 460.82273565 214.97986794 460.82806587 C214.13741254 460.82881429 213.29495715 460.82956272 212.42697281 460.83033382 C210.71504971 460.83186543 209.00312662 460.83340378 207.29120354 460.83494879 C191.26700494 460.84865046 175.24285528 460.84325274 159.21865783 460.83176357 C144.5907679 460.82183527 129.96300453 460.83476906 115.33513411 460.85869776 C100.27944046 460.88313888 85.22380563 460.89268425 70.16809255 460.88604504 C61.72980366 460.88256372 53.29161202 460.88471254 44.85333824 460.90229607 C37.66959294 460.91708099 30.48601336 460.91757201 23.30227109 460.90022516 C19.64435768 460.89176386 15.9867395 460.88944454 12.32884216 460.90487671 C-5.51617504 460.97481538 -22.68871559 460.92806271 -38.99861145 452.70018005 C-40.04794861 452.18536072 -40.04794861 452.18536072 -41.1184845 451.66014099 C-62.55902665 440.77891226 -78.03482614 422.071562 -86.4351539 399.75169915 C-89.53648558 389.98868748 -90.62761772 380.39582203 -90.5737915 370.2015686 C-90.57917704 368.95203425 -90.58456258 367.7024999 -90.59011132 366.41510087 C-90.60183675 362.99049896 -90.60037046 359.56639118 -90.5929445 356.1418103 C-90.58817634 352.43138121 -90.60075467 348.72100216 -90.61096191 345.0105896 C-90.62808481 337.75832861 -90.62900346 330.5061545 -90.62374901 323.25387856 C-90.61969362 317.35379661 -90.62116705 311.45374018 -90.62649727 305.55365944 C-90.62724569 304.71120405 -90.62799411 303.86874866 -90.62876521 303.00076431 C-90.63029683 301.28884122 -90.63183518 299.57691813 -90.63338018 297.86499504 C-90.64708186 281.84079645 -90.64168414 265.81664679 -90.63019497 249.79244933 C-90.62026666 235.1645594 -90.63320045 220.53679603 -90.65712916 205.90892562 C-90.68157027 190.85323196 -90.69111564 175.79759713 -90.68447644 160.74188405 C-90.68099512 152.30359517 -90.68314394 143.86540352 -90.70072746 135.42712975 C-90.71551239 128.24338444 -90.71600341 121.05980486 -90.69865655 113.87606259 C-90.69019525 110.21814918 -90.68787593 106.560531 -90.70330811 102.90263367 C-90.77324678 85.05761646 -90.7264941 67.88507591 -82.49861145 51.57518005 C-82.15539856 50.87562195 -81.81218567 50.17606384 -81.45857239 49.45530701 C-70.57734366 28.01476485 -51.8699934 12.53896536 -29.55013055 4.1386376 C-19.78711887 1.03730592 -10.19425342 -0.05382622 0 0 Z M19.14376831 90.98686218 C17.36779977 94.19299941 17.45328013 96.51654286 17.47331238 100.17576599 C17.4728743 100.84934647 17.47243622 101.52292694 17.47198486 102.21691895 C17.47406909 104.4355961 17.49738156 106.65351049 17.5209198 108.87205505 C17.52651709 110.41333096 17.53078656 111.95461222 17.53378296 113.49589539 C17.54522137 117.54678661 17.57467965 121.59735366 17.6078949 125.64811707 C17.63861757 129.78391637 17.65229298 133.91976821 17.66740417 138.0556488 C17.69955055 146.16647443 17.75073448 154.27703688 17.81388855 162.38768005 C15.8037974 162.88168335 13.79370626 163.37568665 11.78361511 163.86968994 C1.63908854 166.53745336 -5.53285475 173.63792982 -10.8618927 182.37205505 C-15.04966064 191.90880093 -15.69006819 201.1814925 -15.63215637 211.45701599 C-15.62364908 213.75252725 -15.65249778 216.04553804 -15.68415833 218.34080505 C-15.75354893 232.55401087 -13.12163621 244.63892729 -3.18611145 255.38768005 C1.28247429 259.31610708 6.02325322 261.57493494 11.6068573 263.5478363 C12.58549744 263.89596375 13.56413757 264.24409119 14.57243347 264.60276794 C15.31211365 264.86178894 16.05179382 265.12080994 16.81388855 265.38768005 C16.81975479 266.64191269 16.82562103 267.89614532 16.83166504 269.18838501 C16.88885933 281.00401873 16.96160387 292.81946781 17.04960346 304.63491344 C17.09434522 310.70947127 17.13359312 316.78396142 17.1603241 322.85862732 C17.18631885 328.72019542 17.22669451 334.58150368 17.27707481 340.44291115 C17.29376937 342.67998843 17.30526749 344.91711068 17.31150246 347.15424156 C17.32111518 350.28596156 17.34914139 353.41701286 17.3815155 356.54856873 C17.38008041 357.47501694 17.37864532 358.40146515 17.37716675 359.35598755 C17.44664908 364.10355624 17.54724066 367.6342559 20.81388855 371.38768005 C23.85642363 371.97113481 23.85642363 371.97113481 26.81388855 371.38768005 C28.97470804 369.63273885 28.97470804 369.63273885 29.05998421 367.51737785 C29.05814062 366.75228968 29.05629704 365.9872015 29.05439758 365.19892883 C29.05714691 364.32110748 29.05989624 363.44328613 29.06272888 362.53886414 C29.05553833 361.57357788 29.04834778 360.60829163 29.04093933 359.61375427 C29.04123138 358.59909088 29.04152344 357.58442749 29.04182434 356.53901672 C29.04042707 353.17338106 29.02484715 349.80796471 29.00920105 346.44236755 C29.00547233 344.11352154 29.0026247 341.78467395 29.00062561 339.45582581 C28.99297804 333.31714063 28.97331989 327.17854962 28.95121765 321.03990173 C28.93078341 314.77953872 28.92162908 308.51916053 28.9115448 302.2587738 C28.89007507 289.96836777 28.85592558 277.67803173 28.81388855 265.38768005 C29.73995155 265.19246262 29.73995155 265.19246262 30.6847229 264.99330139 C31.49490372 264.8187442 32.30508453 264.64418701 33.13981628 264.46434021 C33.94281662 264.29294525 34.74581696 264.12155029 35.57315063 263.94496155 C44.46792805 261.73279081 52.38290032 254.55598802 57.3490448 247.07518005 C62.99667955 236.80076581 63.14215233 225.35332334 63.06388855 213.88768005 C63.07162292 212.75459412 63.0793573 211.62150818 63.08732605 210.4540863 C63.05469651 196.21129246 61.31220584 182.88599734 50.81388855 172.38768005 C44.7135276 167.56075429 36.81450971 162.38768005 28.81388855 162.38768005 C28.82055038 161.06010178 28.82055038 161.06010178 28.8273468 159.70570374 C28.86737162 151.37700075 28.89784647 143.04832993 28.91751289 134.71955299 C28.92796338 130.43733757 28.94214552 126.15520141 28.96476746 121.87303162 C28.98645093 117.74279879 28.99844764 113.61264236 29.00364304 109.48235703 C29.0073469 107.90424267 29.01457935 106.32613264 29.02534866 104.74805069 C29.03980404 102.54271054 29.04186903 100.33768863 29.04093933 98.13230896 C29.04760117 96.24700974 29.04760117 96.24700974 29.05439758 94.32362366 C29.12256387 91.26501264 29.12256387 91.26501264 26.81388855 89.38768005 C22.56869894 88.78558389 22.56869894 88.78558389 19.14376831 90.98686218 Z M132.14503002 90.54452229 C130.25635508 93.15966573 130.44480301 95.04368986 130.453125 98.25320435 C130.44900101 99.47738068 130.44487701 100.70155701 130.44062805 101.96282959 C130.45124545 103.32148962 130.46214987 104.68014744 130.47331238 106.0388031 C130.47415849 107.46779869 130.47368382 108.89679558 130.47198486 110.32579041 C130.47112285 114.20783424 130.4887818 118.08960094 130.50970674 121.97158027 C130.52843925 126.02748704 130.53022127 130.08339991 130.53378296 134.13934326 C130.54311352 141.82102805 130.56774093 149.50258501 130.59783143 157.18421346 C130.63134403 165.92895956 130.64785354 174.67371171 130.66291773 183.41850603 C130.69428964 201.40830322 130.74706973 219.39798137 130.81388855 237.38768005 C129.71157898 237.53463318 128.60926941 237.6815863 127.47355652 237.83299255 C117.91251975 239.28213702 110.7550696 244.97881594 104.81388855 252.38768005 C99.75501908 260.4695325 97.50179729 268.55511309 97.5131073 278.0322113 C97.50882217 278.84203964 97.50453705 279.65186798 97.50012207 280.48623657 C97.49440782 282.19141205 97.49385695 283.8966119 97.49821472 285.60179138 C97.50136701 288.18254656 97.47790639 290.76214494 97.45256042 293.34275818 C97.39387738 308.27199624 99.72487075 318.84766769 110.06388855 330.13768005 C116.10601949 335.88572497 122.6685447 338.3110926 130.81388855 339.38768005 C130.79032288 340.68185852 130.79032288 340.68185852 130.76628113 342.00218201 C130.715129 345.20577272 130.67752695 348.40915521 130.64909363 351.61302185 C130.63401458 352.99915925 130.61354805 354.385249 130.58757019 355.77122498 C130.55115139 357.76426152 130.53575837 359.75764728 130.5209198 361.7509613 C130.49735413 363.54980774 130.49735413 363.54980774 130.47331238 365.38499451 C130.56802583 368.35798334 130.56802583 368.35798334 132.14079285 370.27903748 C134.74472402 372.0044791 136.78392647 371.77448372 139.81388855 371.38768005 C142.23592893 367.75461948 142.04691746 366.06948983 142.00920105 361.7509613 C141.99953308 359.8028656 141.99953308 359.8028656 141.9896698 357.81541443 C141.97295915 356.44366698 141.95602926 355.07192219 141.93888855 353.70018005 C141.92885529 352.31672287 141.91973004 350.93325878 141.9115448 349.54978943 C141.88793822 346.16224553 141.85500892 342.77504934 141.81388855 339.38768005 C143.03978699 339.26779724 144.26568542 339.14791443 145.5287323 339.0243988 C154.28034816 337.92057404 162.03088709 332.09640422 167.4740448 325.3212738 C173.16763754 317.27750027 175.28178758 309.49764906 175.2474823 299.70799255 C175.25272415 298.8145816 175.257966 297.92117065 175.2633667 297.00068665 C175.26974817 295.12334729 175.26850059 293.24596774 175.25993347 291.36863708 C175.25143017 288.52658963 175.28022823 285.68656067 175.31193542 282.8447113 C175.36493744 269.48380586 174.11887392 259.1989526 165.1615448 248.68455505 C158.8241091 242.48420199 150.86412801 237.38768005 141.81388855 237.38768005 C141.81665393 236.27089135 141.81665393 236.27089135 141.81947517 235.13154125 C141.86361127 217.02975785 141.89672418 198.92798517 141.91751289 180.82615948 C141.92783293 172.07231402 141.94190712 163.31850444 141.96476746 154.56468201 C141.98467911 146.93636245 141.9975997 139.30806886 142.00206554 131.67972404 C142.0046767 127.63920966 142.01082909 123.59876963 142.02534866 119.55827904 C142.03889747 115.75722906 142.04311669 111.95628423 142.04010391 108.1552124 C142.04065529 106.75837953 142.04464884 105.36154324 142.0522995 103.96473122 C142.06221788 102.06091463 142.05867334 100.15704196 142.05439758 98.25320435 C142.05716296 96.65343262 142.05716296 96.65343262 142.05998421 95.02134228 C142.00252305 92.15617551 142.00252305 92.15617551 139.81388855 89.38768005 C136.76226921 88.99811163 134.73436852 88.74960913 132.14503002 90.54452229 Z M250.81388855 91.38768005 C250.44149628 94.20170688 250.44149628 94.20170688 250.39982605 97.48924255 C250.36115417 98.7009613 250.3224823 99.91268005 250.28263855 101.16111755 C250.25170105 102.43213318 250.22076355 103.7031488 250.18888855 105.01268005 C250.15021667 106.29143005 250.1115448 107.57018005 250.07170105 108.88768005 C249.97717806 112.05420022 249.89162498 115.22071045 249.81388855 118.38768005 C248.59934998 118.76315979 248.59934998 118.76315979 247.36027527 119.14622498 C246.29051453 119.48758484 245.22075378 119.8289447 244.11857605 120.1806488 C243.06138367 120.51346863 242.00419128 120.84628845 240.91496277 121.18919373 C236.10691724 123.04738106 232.54711 125.89243288 228.81388855 129.38768005 C227.96697449 130.17271912 227.96697449 130.17271912 227.10295105 130.97361755 C216.69160284 141.80776163 216.63382539 156.13711924 216.62638855 170.20018005 C216.61414246 171.40738708 216.60189636 172.61459412 216.58927917 173.85838318 C216.56691027 187.64508754 218.28441756 200.87675642 228.18888855 211.32518005 C233.31650367 215.93666762 238.4243699 219.12011823 245.0756073 221.02830505 C245.96594666 221.28643982 246.85628601 221.54457458 247.77360535 221.81053162 C248.4468988 222.0009906 249.12019226 222.19144958 249.81388855 222.38768005 C249.8171987 223.14343512 249.82050884 223.89919018 249.8239193 224.67784691 C249.90505366 243.04640358 249.99711442 261.41487552 250.10141563 279.78331566 C250.15158947 288.66606795 250.19803173 297.54881079 250.23576355 306.43162537 C250.26865065 314.17168715 250.30846348 321.9116766 250.35667861 329.65165865 C250.38197639 333.75190916 250.40374785 337.85211149 250.41723251 341.95241928 C250.43002329 345.80851555 250.45204496 349.66444684 250.48127174 353.5204525 C250.49037099 354.93864475 250.49604319 356.35686359 250.49810219 357.77508354 C250.50140806 359.70558711 250.51803119 361.63605442 250.53541565 363.56648254 C250.54094641 364.64866751 250.54647717 365.73085247 250.55217552 366.84583092 C250.56102646 369.55546212 250.56102646 369.55546212 252.81388855 371.38768005 C255.77135347 371.97113481 255.77135347 371.97113481 258.81388855 371.38768005 C261.68652704 367.69421641 262.1866284 364.89252373 262.1746521 360.28164673 C262.18083809 358.44125824 262.18083809 358.44125824 262.18714905 356.56369019 C262.17653311 355.21229331 262.1656287 353.86089868 262.15446472 352.50950623 C262.1536181 351.08021564 262.15409427 349.65092374 262.15579224 348.22163391 C262.15665226 344.34797191 262.13902542 340.47458913 262.11807036 336.60099196 C262.09930478 332.55043567 262.09755322 328.49987284 262.09399414 324.44927979 C262.08467332 316.78182771 262.06005906 309.1145041 262.02994567 301.44710857 C261.9964028 292.71682619 261.97991594 283.98653765 261.96485937 275.25620687 C261.93350952 257.29995846 261.88074831 239.34382959 261.81388855 221.38768005 C262.91619812 221.24072693 264.01850769 221.0937738 265.15422058 220.94236755 C274.72480671 219.49177571 281.85768045 213.79174111 287.81388855 206.38768005 C294.58845897 195.86231089 295.16506167 184.98624124 295.12956238 172.84153748 C295.12640951 170.59014587 295.14989987 168.34008128 295.17521667 166.08885193 C295.24160677 151.24841942 292.79644171 139.8597018 282.56388855 128.63768005 C276.58090618 122.94590479 269.93377781 120.32305945 261.81388855 119.38768005 C261.83745422 118.29096985 261.83745422 118.29096985 261.86149597 117.17210388 C261.92399206 113.84820846 261.96292607 110.52443685 262.00138855 107.20018005 C262.02652527 106.04969177 262.05166199 104.89920349 262.07756042 103.71385193 C262.09206238 102.04612732 262.09206238 102.04612732 262.1068573 100.3447113 C262.13042297 98.8129425 262.13042297 98.8129425 262.15446472 97.25022888 C261.75651341 93.90544098 260.87265154 92.03946773 258.81388855 89.38768005 C255.04420114 88.84915328 253.5589131 88.6426555 250.81388855 91.38768005 Z " fill="#000000" transform="translate(116.18611145019531,25.612319946289063)"/>
</svg>
